<?xml version="1.0" encoding="UTF-8"?>
<svg id="_图层_2" data-name="图层 2" xmlns="http://www.w3.org/2000/svg" viewBox="0 0 18.46 18.46">
  <defs>
    <style>
      .cls-1 {
        fill: #656565;
      }
    </style>
  </defs>
  <g id="Layer_1" data-name="Layer 1">
    <g>
      <path class="cls-1" d="m9.23,18.46C4.13,18.46,0,14.33,0,9.23S4.13,0,9.23,0s9.23,4.13,9.23,9.23-4.13,9.23-9.23,9.23Zm0-1.23c4.42,0,8-3.58,8-8S13.65,1.23,9.23,1.23,1.23,4.81,1.23,9.23s3.58,8,8,8Z"/>
      <path class="cls-1" d="m4.31,9.85c-.34,0-.62-.28-.62-.62s.28-.62.62-.62h9.85c.34,0,.62.28.62.62s-.28.62-.62.62H4.31Z"/>
      <path class="cls-1" d="m8.62,4.31c0-.34.28-.62.62-.62s.62.28.62.62v9.85c0,.34-.28.62-.62.62s-.62-.28-.62-.62V4.31Z"/>
    </g>
  </g>
</svg>