<?xml version="1.0" encoding="UTF-8"?>
<svg id="_图层_2" data-name="图层 2" xmlns="http://www.w3.org/2000/svg" viewBox="0 0 63.91 33.88">
  <defs>
    <style>
      .cls-1 {
        fill: #fff;
      }
    </style>
  </defs>
  <g id="Layer_1" data-name="Layer 1">
    <g>
      <path class="cls-1" d="m12.62,33.88h33.85l-3.28-5.9-24.12-5.7-6.45,11.6Z"/>
      <path class="cls-1" d="m43.07,21.6l17.33-13.45c.65-.51.77-1.45.26-2.1-.51-.65-1.45-.77-2.1-.26l-16.97,13.17,1.47,2.65Z"/>
      <path class="cls-1" d="m24.67,20.53l16.55,3.91-3.92-7.05-12.63,3.14Z"/>
      <path class="cls-1" d="m63.6,11.6c-.51-.65-1.45-.77-2.1-.26l-16.86,13.09,1.47,2.65,17.22-13.37c.65-.51.77-1.45.26-2.1h0Z"/>
      <path class="cls-1" d="m17.88,18.25L2.46,5.38c-.64-.53-1.58-.44-2.11.19-.53.64-.45,1.58.19,2.11l15.86,13.24,1.48-2.67Z"/>
      <path class="cls-1" d="m21.3,18.28l14.49-3.6-6.24-11.23-8.25,14.83Z"/>
      <path class="cls-1" d="m39.33,14.88c.03.05.06.1.09.16l.57,1.02L57.21,2.68c.65-.51.77-1.45.26-2.1-.51-.65-1.45-.77-2.1-.26l-16.87,13.09.82,1.48Z"/>
    </g>
  </g>
</svg>