<?xml version="1.0" encoding="UTF-8"?>
<svg id="_图层_2" data-name="图层 2" xmlns="http://www.w3.org/2000/svg" viewBox="0 0 37.76 38.53">
  <defs>
    <style>
      .cls-1 {
        stroke: #000;
        stroke-miterlimit: 10;
      }
    </style>
  </defs>
  <g id="Layer_1" data-name="Layer 1">
    <g>
      <g>
        <path d="m16.93,14.77c-4.35,0-8.45-.67-11.55-1.89-1.59-.62-2.85-1.36-3.75-2.2C.88,9.99,0,8.86,0,7.39,0,6.57.28,5.34,1.62,4.1c.9-.84,2.16-1.58,3.75-2.2C8.48.67,12.58,0,16.93,0s8.45.67,11.55,1.89c1.59.62,2.85,1.36,3.75,2.2.74.69,1.62,1.82,1.62,3.29,0,.81-.28,2.05-1.62,3.29-.9.84-2.16,1.58-3.75,2.2-3.11,1.22-7.21,1.89-11.55,1.89Zm0-12.35c-4.05,0-7.84.61-10.67,1.72-2.36.93-3.83,2.17-3.83,3.24s1.47,2.31,3.83,3.24c2.83,1.11,6.62,1.72,10.67,1.72s7.84-.61,10.67-1.72c2.36-.93,3.83-2.17,3.83-3.24s-1.47-2.31-3.83-3.24c-2.83-1.11-6.62-1.72-10.67-1.72Zm0,19.97c-4.35,0-8.45-.67-11.55-1.89-1.59-.62-2.85-1.36-3.75-2.2C.88,17.61,0,16.48,0,15,0,14.33.54,13.79,1.21,13.79s1.21.54,1.21,1.21c0,1.07,1.47,2.31,3.83,3.24,2.83,1.11,6.62,1.72,10.67,1.72,1.56,0,3.1-.09,4.58-.27.66-.08,1.27.39,1.35,1.05.08.66-.39,1.27-1.05,1.35-1.57.19-3.21.29-4.88.29Zm0,7.85c-4.35,0-8.45-.67-11.55-1.89-1.59-.62-2.85-1.36-3.75-2.2C.88,25.46,0,24.33,0,22.86,0,22.19.54,21.64,1.21,21.64s1.21.54,1.21,1.21c0,1.07,1.47,2.31,3.83,3.24,2.83,1.11,6.62,1.72,10.67,1.72.67,0,1.21.54,1.21,1.21s-.54,1.21-1.21,1.21Z"/>
        <path d="m15.28,38.53s-.03,0-.05,0c-3.99-.16-7.69-.91-10.43-2.09-1.42-.62-2.55-1.34-3.36-2.14-.94-.94-1.44-2.02-1.44-3.12V7.39c0-.81.28-2.05,1.62-3.29.9-.84,2.16-1.58,3.75-2.2,3.11-1.22,7.21-1.89,11.55-1.89s8.45.67,11.55,1.89c1.59.62,2.85,1.36,3.75,2.2.74.69,1.62,1.82,1.62,3.29v10.7c0,.67-.54,1.21-1.21,1.21s-1.21-.54-1.21-1.21V7.39c0-1.07-1.47-2.31-3.83-3.24-2.83-1.11-6.62-1.72-10.67-1.72s-7.84.61-10.67,1.72c-2.36.93-3.83,2.17-3.83,3.24v23.79c0,.99,1.25,2.13,3.34,3.03,2.47,1.07,5.87,1.74,9.56,1.9.67.03,1.19.59,1.16,1.26-.03.65-.56,1.16-1.21,1.16h0Z"/>
      </g>
      <path class="cls-1" d="m20.94,27.69c.45,0,.9-.1,1.29-.32.38-.21.71-.53.94-.93h0c.23-.4.34-.84.34-1.28,0-.45-.13-.89-.36-1.28-.1-.16-.13-.34-.1-.51.03-.17.12-.33.27-.45.34-.27.7-.52,1.08-.74.38-.22.77-.41,1.17-.56h0c.17-.07.36-.07.52,0,.16.06.31.18.4.34.22.39.54.72.92.95.37.22.81.35,1.27.35s.9-.13,1.27-.35c.39-.23.71-.56.92-.95.09-.16.23-.28.4-.34.16-.06.35-.06.52,0h0c.41.16.8.35,1.17.56.38.22.74.47,1.08.74.15.12.24.28.27.45.03.17,0,.35-.1.51-.23.38-.36.83-.36,1.28,0,.43.1.87.34,1.28h0c.23.4.56.72.94.93.39.22.84.33,1.29.32.19,0,.36.06.49.17.14.11.23.27.26.46.03.21.06.43.07.65.02.22.03.44.03.65s0,.43-.03.65c-.02.22-.04.44-.07.65-.03.18-.12.34-.26.46-.13.11-.31.18-.49.17-.45,0-.9.1-1.29.32-.38.21-.71.53-.94.93-.23.4-.34.84-.34,1.28,0,.45.13.89.36,1.27.1.16.13.34.1.51-.03.17-.12.33-.27.45-.34.27-.7.52-1.08.74-.38.22-.77.41-1.17.57h0c-.17.07-.36.07-.52,0-.16-.06-.31-.18-.4-.34-.22-.39-.54-.73-.92-.95-.37-.22-.81-.35-1.27-.35s-.9.13-1.27.35c-.39.23-.71.56-.92.95-.09.16-.23.28-.4.34-.16.06-.35.06-.52,0h0c-.41-.16-.8-.35-1.17-.56-.38-.22-.74-.47-1.08-.74-.15-.12-.24-.28-.27-.45-.03-.17,0-.35.1-.51.23-.38.36-.83.36-1.27,0-.43-.1-.88-.34-1.28-.23-.4-.56-.71-.94-.93-.39-.22-.84-.33-1.29-.32-.19,0-.36-.06-.49-.17-.13-.11-.23-.27-.26-.46-.03-.21-.06-.43-.07-.65-.02-.22-.02-.44-.02-.65s0-.43.02-.65c.02-.22.04-.44.07-.65.03-.18.12-.34.26-.46.13-.11.31-.18.49-.17Zm1.66.33c-.5.28-1.08.43-1.66.42-.03.19-.05.39-.07.58-.01.19-.02.39-.02.6s0,.4.02.6c.01.19.04.39.07.58.58-.01,1.16.13,1.66.42.49.28.92.68,1.22,1.21.3.52.44,1.1.44,1.66,0,.58-.17,1.15-.47,1.65.31.25.63.47.98.67.34.2.69.37,1.06.51.28-.51.7-.94,1.2-1.23.49-.29,1.05-.45,1.66-.45s1.17.17,1.66.45c.5.3.91.72,1.19,1.23.37-.14.72-.32,1.06-.51.34-.2.67-.42.98-.67-.3-.5-.46-1.07-.47-1.65,0-.56.13-1.14.44-1.66.3-.53.73-.93,1.22-1.21.5-.28,1.08-.43,1.66-.42.03-.19.05-.39.07-.58.01-.19.02-.39.02-.6s0-.4-.02-.6c-.01-.19-.04-.39-.07-.58-.58.01-1.16-.13-1.66-.42-.49-.28-.92-.68-1.22-1.21h0c-.3-.52-.44-1.1-.44-1.66,0-.58.17-1.15.47-1.65-.31-.25-.63-.47-.98-.67-.34-.2-.69-.37-1.06-.51-.28.51-.7.94-1.19,1.23-.49.29-1.05.45-1.66.45s-1.17-.17-1.66-.45c-.5-.3-.91-.72-1.19-1.23-.37.14-.72.32-1.06.51-.34.2-.67.42-.98.67.3.5.46,1.07.47,1.65,0,.56-.13,1.14-.44,1.66h0c-.3.53-.73.93-1.22,1.21h0Zm6.08-1.36c.82,0,1.55.33,2.09.87.53.53.87,1.27.87,2.09s-.33,1.55-.87,2.09c-.53.53-1.27.87-2.09.87s-1.55-.33-2.09-.87c-.53-.53-.87-1.27-.87-2.09s.33-1.55.87-2.09c.53-.53,1.27-.87,2.09-.87Zm1.56,1.4c-.4-.4-.95-.64-1.56-.64s-1.16.25-1.56.64-.64.95-.64,1.56.25,1.16.64,1.56c.4.4.95.64,1.56.64s1.16-.25,1.56-.64.64-.95.64-1.56-.25-1.16-.64-1.56h0Z"/>
    </g>
  </g>
</svg>