<?xml version="1.0" encoding="UTF-8"?><svg id="Layer_2" xmlns="http://www.w3.org/2000/svg" viewBox="0 0 38.95 44.52"><defs><style>.cls-1{fill-rule:evenodd;stroke-width:0px;}</style></defs><g id="Layer_1-2"><path class="cls-1" d="M.74,10.59c-.2.12-.38.29-.52.5l-.02.03v.02s-.03.03-.03.03h0C.05,11.39,0,11.63,0,11.87v20.77c0,.53.28,1.02.74,1.29l17.99,10.39c.2.12.44.19.69.2h.03s.06,0,.06,0h.01c.25,0,.49-.08.69-.2l17.99-10.39c.46-.27.74-.76.74-1.29V11.87c0-.24-.05-.48-.17-.7v-.03s-.03-.02-.03-.02l-.02-.03h0c-.13-.22-.31-.39-.52-.51L20.22.2c-.46-.27-1.03-.27-1.48,0L.74,10.59h0ZM2.97,31.79l15.02,8.67v-17.35L2.97,14.44v17.35ZM35.98,14.44l-15.02,8.67v17.35l15.02-8.67V14.44ZM4.45,11.87l15.02,8.67,15.02-8.67L19.47,3.2,4.45,11.87Z"/></g></svg>