<?xml version="1.0" encoding="UTF-8"?>
<svg id="_图层_2" data-name="图层 2" xmlns="http://www.w3.org/2000/svg" viewBox="0 0 20.63 20.66">
  <defs>
    <style>
      .cls-1 {
        fill: #656565;
      }
    </style>
  </defs>
  <g id="Layer_1" data-name="Layer 1">
    <path class="cls-1" d="m19.8,6.3c-.52-1.21-1.27-2.34-2.2-3.28s-2.06-1.7-3.29-2.22C11.77-.27,8.81-.27,6.28.81c-1.21.52-2.34,1.27-3.28,2.2-.94.94-1.68,2.08-2.2,3.29-.52,1.27-.8,2.62-.8,4.04s.28,2.77.8,4.04c.52,1.21,1.27,2.34,2.2,3.28.94.94,2.06,1.68,3.28,2.2,1.27.52,2.64.8,4.04.8s2.72-.28,4.04-.8c1.21-.52,2.34-1.27,3.28-2.2.94-.94,1.68-2.06,2.2-3.28.52-1.27.8-2.64.8-4.04s-.31-2.77-.83-4.04Zm-.9,7.7c-.47,1.13-1.13,2.12-2.01,3s-1.87,1.54-3,2.01c-2.31.99-4.98.99-7.32,0-1.13-.47-2.12-1.18-3-2.01-.85-.85-1.54-1.87-2.01-3-.47-1.18-.75-2.39-.75-3.66s.24-2.48.75-3.66c.47-1.13,1.13-2.12,2.01-3,.85-.85,1.87-1.54,3-2.01,1.16-.49,2.39-.76,3.66-.76s2.48.24,3.66.75c1.13.47,2.12,1.13,3,2.01.85.85,1.54,1.87,2.01,3,.47,1.18.75,2.39.75,3.66.02,1.28-.23,2.5-.75,3.68Zm-3.69-7.94l-.71-.64-4.21,4.27-4.37-4.37-.66.66,4.37,4.37-4.28,4.27.66.66,4.28-4.27,4.35,4.35.66-.66-4.37-4.35,4.28-4.28Z"/>
  </g>
</svg>