<?xml version="1.0" encoding="UTF-8"?>
<svg id="_图层_2" data-name="图层 2" xmlns="http://www.w3.org/2000/svg" viewBox="0 0 19.01 19.02">
  <defs>
    <style>
      .cls-1 {
        fill: #515151;
      }
    </style>
  </defs>
  <g id="Layer_1" data-name="Layer 1">
    <path class="cls-1" d="m5.92,11.69c-.14,0-.29-.06-.4-.17-.22-.22-.22-.58,0-.8l4.02-4.02c.22-.22.58-.22.8,0,.22.22.22.58,0,.8l-4.02,4.03c-.11.11-.25.16-.4.16Zm5.31-5.25c-.16,0-.32-.06-.45-.19-.25-.26-.25-.67,0-.93l1.12-1.16c.25-.26.64-.26.89,0,.25.26.25.67,0,.93l-1.12,1.16c-.12.13-.29.19-.45.19Zm2.73,7.26H3.91c-.31,0-.56-.25-.56-.56s.25-.56.56-.56h10.04c.31,0,.56.25.56.56s-.25.56-.56.56Zm-4.45,5.31c-1.28,0-2.53-.25-3.7-.75-1.13-.48-2.15-1.16-3.02-2.04-.87-.87-1.56-1.89-2.04-3.02-.5-1.17-.75-2.42-.75-3.7s.25-2.53.75-3.7c.48-1.13,1.16-2.15,2.04-3.02.87-.87,1.89-1.56,3.02-2.04,1.17-.5,2.42-.75,3.7-.75s2.53.25,3.7.75c1.13.48,2.15,1.16,3.02,2.04.87.87,1.56,1.89,2.04,3.02.5,1.17.75,2.42.75,3.7,0,1.72-.47,3.41-1.35,4.88-.16.27-.51.35-.77.19-.27-.16-.35-.51-.19-.78.77-1.29,1.18-2.78,1.19-4.3,0-1.13-.22-2.23-.66-3.26-.42-1-1.03-1.89-1.8-2.66-.77-.77-1.67-1.38-2.66-1.8-1.03-.44-2.13-.66-3.26-.66s-2.23.22-3.26.66c-1,.42-1.89,1.03-2.66,1.8s-1.37,1.66-1.8,2.66c-.44,1.03-.66,2.13-.66,3.26,0,1.13.22,2.23.66,3.26.42,1,1.03,1.89,1.8,2.66s1.67,1.37,2.66,1.8c1.03.44,2.13.66,3.26.66,1.69,0,3.31-.5,4.71-1.45.26-.17.61-.11.79.15s.11.61-.15.79c-1.58,1.08-3.43,1.65-5.34,1.65Z"/>
  </g>
</svg>