<?xml version="1.0" encoding="UTF-8"?>
<svg id="_图层_2" data-name="图层 2" xmlns="http://www.w3.org/2000/svg" viewBox="0 0 13.74 16.41">
  <defs>
    <style>
      .cls-1 {
        fill: #515151;
      }
    </style>
  </defs>
  <g id="Layer_1" data-name="Layer 1">
    <path class="cls-1" d="m12.97,16.41c-2.57,0-4.92-1.29-6.1-3.33-1.18,2.04-3.54,3.32-6.1,3.33-.42,0-.76-.31-.76-.68s.34-.68.76-.68c2.95,0,5.34-2.15,5.34-4.78V2.33l-1.75,1.57c-.3.27-.78.27-1.08,0s-.3-.7,0-.97L6.33.2c.14-.13.33-.2.54-.2h0c.2,0,.39.07.54.2l3.05,2.73c.3.27.3.7,0,.97s-.78.27-1.08,0l-1.75-1.57v7.92c0,2.64,2.4,4.78,5.34,4.78.42,0,.76.31.76.68s-.34.68-.76.68Z"/>
  </g>
</svg>