<?xml version="1.0" encoding="UTF-8"?>
<svg id="_图层_2" data-name="图层 2" xmlns="http://www.w3.org/2000/svg" viewBox="0 0 14.67 14.69">
  <defs>
    <style>
      .cls-1 {
        fill: #515151;
      }
    </style>
  </defs>
  <g id="Layer_1" data-name="Layer 1">
    <path class="cls-1" d="m14.67,2.7l-2.7-2.7-2.7,2.7.81.81,1.32-1.32v2.31c0,.84-.36,1.63-.99,2.18l-2.25,1.95c-.32.28-.6.61-.82.97-.21-.36-.49-.69-.81-.97l-2.25-1.95c-.63-.55-.99-1.34-.99-2.18v-2.31l1.32,1.32.81-.81L2.7,0,0,2.7l.81.81,1.32-1.32v2.31c0,1.17.51,2.28,1.39,3.05l2.25,1.95c.62.53.97,1.32.97,2.17v3.02h1.15v-3.01c0-.83.37-1.62,1.01-2.18l2.25-1.95c.88-.77,1.39-1.88,1.39-3.05v-2.31l1.32,1.32.81-.81h0Z"/>
  </g>
</svg>