<?xml version="1.0" encoding="UTF-8"?>
<svg id="_图层_2" data-name="图层 2" xmlns="http://www.w3.org/2000/svg" viewBox="0 0 39.15 39.14">
  <g id="Layer_1" data-name="Layer 1">
    <g>
      <path d="m3.21,38.64c-1.53,0-2.75-1.3-2.75-2.92V13.74c0-1.63,1.22-2.92,2.75-2.92h23.02c1.53,0,2.75,1.3,2.75,2.92v21.98c0,1.62-1.22,2.92-2.75,2.92H3.21Zm0-25.9c-.51,0-.93.45-.93.99v22.31h.06c.12.38.45.66.86.66h23.03c.51,0,.93-.45.93-.98V13.74c0-.54-.42-.99-.93-.99H3.21Zm28.81,17.77V8.54c0-.54-.42-.99-.93-.99H10.49c-.51-.02-.92-.44-.9-.96,0-.51.39-.96.9-.96h20.57c1.53,0,2.75,1.3,2.75,2.93v21.99c0,.51-.39.96-.9.96s-.89-.41-.89-.99h0Zm4.87-5.16V3.38c0-.54-.42-.99-.93-.99H15.37c-.51-.02-.92-.45-.9-.96,0-.51.39-.96.9-.96h20.57c1.53,0,2.75,1.3,2.75,2.93v21.98c0,.51-.39.96-.9.96-.5-.01-.9-.43-.89-.93,0-.02,0-.03,0-.05h0Z"/>
      <path d="m0,35.72V13.74c0-1.89,1.44-3.42,3.21-3.42h23.02c1.77,0,3.21,1.54,3.21,3.42v21.98c0,1.89-1.44,3.42-3.21,3.42H3.21c-1.77,0-3.21-1.54-3.21-3.42ZM3.21,11.3c-1.26,0-2.28,1.1-2.28,2.44v21.98c0,1.34,1.03,2.44,2.28,2.44h23.02c1.26,0,2.28-1.1,2.28-2.44V13.74c0-1.34-1.03-2.44-2.28-2.44H3.21Zm-1.16,25.23h-.23V13.74c0-.81.63-1.48,1.39-1.48h23.02c.76,0,1.39.66,1.39,1.48v21.98c0,.81-.63,1.48-1.39,1.48H3.21c-.47,0-.91-.26-1.16-.66h0Zm1.16-23.29c-.26,0-.46.22-.46.5v22.03l.04.12c.05.16.19.33.43.33h23.01c.26,0,.46-.22.46-.5V13.74c0-.26-.21-.5-.46-.5H3.21Zm28.35,17.28V8.54c0-.26-.22-.5-.46-.5H10.49c-.75,0-1.36-.65-1.36-1.45s.61-1.45,1.36-1.45h20.57c1.77,0,3.21,1.54,3.21,3.42v21.98c0,.8-.61,1.45-1.36,1.45s-1.35-.63-1.35-1.48ZM10.49,6.14c-.27,0-.43.25-.43.46,0,.28.23.46.43.46h20.6c.76,0,1.39.66,1.39,1.48v21.98c0,.29.18.5.43.5s.43-.25.43-.46V8.57c0-1.34-1.03-2.44-2.28-2.44H10.49Zm26.3,20.24c-.25-.28-.38-.66-.36-1.04V3.38c0-.27-.22-.5-.46-.5H15.37c-.76,0-1.36-.64-1.36-1.44S14.61,0,15.36,0h20.57c1.78,0,3.22,1.53,3.22,3.42v21.98c0,.8-.61,1.45-1.36,1.45-.38-.01-.75-.18-1-.47h0ZM15.36.98c-.26,0-.43.24-.43.46,0,.29.23.46.43.46h20.6c.76,0,1.39.67,1.39,1.48v22.02c-.01.24.17.44.41.46,0,0,.02,0,.02,0,.26,0,.43-.25.43-.46V3.41c0-1.34-1.03-2.43-2.28-2.43H15.36Z"/>
    </g>
  </g>
</svg>