// SVG file for the ValidationView component
// This SVG file is used to display the ValidationView component in the frontend
<?xml version="1.0" encoding="UTF-8"?>
<svg id="_图层_2" data-name="图层 2" xmlns="http://www.w3.org/2000/svg" xmlns:xlink="http://www.w3.org/1999/xlink" viewBox="0 0 34.35 34.35">
  // The following code is used to create the clip path for the SVG
  <defs>
    <style>
      .cls-1 {
        clip-path: url(#clippath-1);
      }

      .cls-2 {
        clip-path: url(#clippath);
      }

      .cls-3 {
        fill: none;
      }
    </style>
    <clipPath id="clippath">
      <polygon class="cls-3" points="24.62 0 0 0 0 34.35 11.41 34.35 11.41 31.5 2.85 31.5 2.85 2.85 23.54 2.85 31.5 9.87 31.5 16.06 34.35 16.06 34.35 8.56 24.62 0"/>
    </clipPath>
    <clipPath id="clippath-1">
      <path class="cls-3" d="m22.14,27.62c-2.7,0-4.89-2.18-4.89-4.87s2.19-4.87,4.89-4.87,4.89,2.18,4.89,4.87c0,1.29-.51,2.53-1.43,3.45-.92.91-2.16,1.43-3.46,1.43Zm7.73-4.87c0-3.55-2.44-6.64-5.89-7.48-3.46-.84-7.05.78-8.69,3.93-1.64,3.15-.92,7.01,1.76,9.35,2.68,2.34,6.61,2.55,9.53.52l5.2,4.59,1.88-2.12-5.09-4.5c.85-1.26,1.31-2.75,1.31-4.28Zm-24.26-3.8h4.77v2.83h-4.77v-2.83Zm0-6.66h8.1v2.83H5.61v-2.83Zm0-6.68h9.35v2.83H5.61v-2.83Z"/>
    </clipPath>
  </defs>
  // The following code is used to create the SVG
  <g id="Layer_1" data-name="Layer 1">
    <g>
      <g class="cls-2">
        <rect x="-1.72" y="-1.72" width="37.79" height="37.79"/>
      </g>
      <g class="cls-1">
        <rect x="3.89" y="3.89" width="31.48" height="31.48"/>
      </g>
    </g>
  </g>
</svg>
